
<svg width="42" height="42" viewBox="0 0 42 42" fill="none" xmlns="http://www.w3.org/2000/svg"><path d="M34.8293 25.6949V29.6417C34.8293 29.8584 34.7128 30.0599 34.5246 30.1677L31.0935 32.1405C30.9218 32.2389 30.7065 32.1159 30.7065 31.9179V27.9712C30.7065 27.7544 30.823 27.5529 31.0112 27.4452L34.4423 25.4724C34.614 25.374 34.8293 25.497 34.8293 25.6949V25.6949ZM30.3184 18.2255L22.648 22.6362C22.4587 22.7451 22.3434 22.9455 22.3434 23.1622V31.9835C22.3434 32.1815 22.5586 32.3045 22.7304 32.2061L26.5826 29.9908V25.2486L30.7065 22.8775V18.4469C30.7065 18.249 30.4913 18.126 30.3195 18.2244L30.3184 18.2255ZM26.4661 15.2148V11.2669C26.4661 11.0689 26.2509 10.9459 26.0792 11.0443L22.648 13.0171C22.4598 13.126 22.3434 13.3264 22.3434 13.5431V17.491C22.3434 17.689 22.5586 17.812 22.7304 17.7136L26.1615 15.7408C26.3497 15.6319 26.4661 15.4315 26.4661 15.2148V15.2148ZM21.7906 3.12153L5.59598 12.4349C5.30309 12.6036 5.12195 12.9152 5.12195 13.2526V31.9015C5.12195 32.178 5.41836 32.3549 5.66302 32.2248L9.85635 29.9931V25.251L13.9803 22.8799V18.0041L18.2195 15.5674V10.8241L22.3434 8.45298V3.44018C22.3434 3.15785 22.0364 2.98212 21.7917 3.1227L21.7906 3.12153ZM17.716 25.4712L14.2849 27.444C14.0967 27.5529 13.9803 27.7533 13.9803 27.97V31.9167C13.9803 32.1147 14.1955 32.2377 14.3673 32.1393L17.7984 30.1665C17.9866 30.0576 18.103 29.8572 18.103 29.6405V25.6938C18.103 25.4958 17.8878 25.3728 17.716 25.4712V25.4712Z" fill="#2B6ACA"></path></svg>
